<svg width="156" height="112" viewBox="0 0 156 112" fill="none" xmlns="http://www.w3.org/2000/svg">
<g id="image 2 (Traced)" opacity="0.85" filter="url(#filter0_d_414_178)">
<path fill-rule="evenodd" clip-rule="evenodd" d="M52.7952 0.954364L45.4234 1.15848L38.4265 1.4412L31.4295 1.72391L29.4491 1.98043L27.4684 2.23719L25.4508 2.86675L23.4329 3.49631L21.5542 4.42756L19.6756 5.35855L17.8573 6.55454L16.0394 7.75053L14.012 9.65469L11.9849 11.5588L10.6917 13.1808L9.39874 14.8027L8.10879 16.9469L6.8191 19.0911L6.05293 20.9394L5.28676 22.7876L4.68302 25.098L4.07928 27.4084L3.83289 30.4629L3.5865 33.5174L3.29337 40.7537L3 47.9901L3.14894 57.9712L3.29787 67.9524L3.56675 72.4439L3.83539 76.9354L4.19398 79.0564L4.55258 81.1774L5.2038 83.1736L5.85477 85.1699L6.71515 86.9707L7.57552 88.7713L9.11336 91.0879L10.6512 93.4043L13.1689 95.9228L15.6863 98.4413L17.6624 99.7623L19.6383 101.083L21.5357 102.024L23.4329 102.964L25.4658 103.598L27.4989 104.233L29.589 104.49L31.6794 104.748L38.0516 105.006L44.4239 105.265L54.6694 105.507L64.915 105.75L78.784 105.75H92.653L101.649 105.508L110.645 105.266L117.767 105.003L124.889 104.739L126.812 104.489L128.734 104.239L130.155 103.869L131.577 103.499L133.337 102.728L135.098 101.956L136.83 100.924L138.563 99.8921L140.588 98.2701L142.613 96.6482L144.296 94.6996L145.979 92.751L147.086 91.0735L148.193 89.3959L149.069 87.6572L149.946 85.9184L150.696 83.795L151.446 81.6712L151.849 79.3034L152.251 76.9354L152.626 69.3248L153 61.7141V53.2302V44.7462L152.626 37.1355L152.251 29.5249L151.849 27.1569L151.446 24.7891L150.7 22.6654L149.953 20.5419L148.807 18.3173L147.661 16.093L146.252 14.2001L144.842 12.3074L143.489 10.8335L142.135 9.35974L139.959 7.68017L137.782 6.00059L136.176 5.10353L134.569 4.20622L132.691 3.45539L130.813 2.70456L128.976 2.31654L127.138 1.92828L122.89 1.69397L118.642 1.45991L111.145 1.18992L103.648 0.920179L81.9077 0.835089L60.1671 0.75L52.7952 0.954364ZM81.9742 43.2735L101.149 53.1543L101.459 53.4076L101.769 53.6611L101.648 53.8555L101.528 54.0501L82.0814 64.058L62.6353 74.0658H62.3381H62.0413V53.7292V33.3926H62.4201H62.7989L81.9742 43.2735Z" fill="#1F3570"/>
</g>
<defs>
<filter id="filter0_d_414_178" x="0" y="0.75" width="156" height="111" filterUnits="userSpaceOnUse" color-interpolation-filters="sRGB">
<feFlood flood-opacity="0" result="BackgroundImageFix"/>
<feColorMatrix in="SourceAlpha" type="matrix" values="0 0 0 0 0 0 0 0 0 0 0 0 0 0 0 0 0 0 127 0" result="hardAlpha"/>
<feOffset dy="3"/>
<feGaussianBlur stdDeviation="1.5"/>
<feComposite in2="hardAlpha" operator="out"/>
<feColorMatrix type="matrix" values="0 0 0 0 0 0 0 0 0 0 0 0 0 0 0 0 0 0 0.25 0"/>
<feBlend mode="normal" in2="BackgroundImageFix" result="effect1_dropShadow_414_178"/>
<feBlend mode="normal" in="SourceGraphic" in2="effect1_dropShadow_414_178" result="shape"/>
</filter>
</defs>
</svg>
